# xmcd
#
# Track frame offsets:
#	150
#	21010
#	42280
#	60807
#	76522
#	94367
#	107165
#	119270
#	135627
#	157720
#	176155
#	198405
#	218365
#
# Disc length: 3139 seconds
#
# Revision: 0
# Processed by: cddbd v1.5.1PL0 Copyright (c) Steve Scherf et al.
# Submitted via: dBpowerAMP V4.0
#
DISCID=990c410d
DTITLE=Selda Bagcan - ...Ben Geldim
DYEAR=2005
DGENRE=Country
TTITLE0=Agladim Anne
TTITLE1=Ahmet Kaya'ya
TTITLE2=Yarim Istanbul
TTITLE3=Anne... Ben Geldim
TTITLE4=Hesapta Yoktu
TTITLE5=Dunyayi Ters Donduremem
TTITLE6=Sabreden Dervis
TTITLE7=Sivas'in Yollari (Yeniden)
TTITLE8=Mevlam Bircok Dert Vermis
TTITLE9=Ayni Cemin Bulbuluyum
TTITLE10=Don Gel Birtanem
TTITLE11=Giresun Ustunde
TTITLE12=Sivas'in Yollari
EXTD=
EXTT0=
EXTT1=
EXTT2=
EXTT3=
EXTT4=
EXTT5=
EXTT6=
EXTT7=
EXTT8=
EXTT9=
EXTT10=
EXTT11=
EXTT12=
PLAYORDER=
